<svg width="26" height="21" viewBox="0 0 26 21" fill="none" xmlns="http://www.w3.org/2000/svg">
<g id="aero">
<path id="Rectangle-169" fill-rule="evenodd" clip-rule="evenodd" d="M11.1587 8.94894H5.22021L1.49146 5.96597L0 6.7117L1.74072 9.61298C1.58313 9.84973 1.49146 10.1343 1.49146 10.4404C1.49146 10.654 1.53577 10.8564 1.6156 11.0393L0 14.1692L1.49146 14.9149L5.22021 11.9319H11.1862L7.4574 20.8809H10.4404L16.4064 11.9319H23.8625C24.6921 11.9319 25.3552 11.2642 25.3552 10.4404C25.3552 9.61096 24.687 8.94894 23.8625 8.94894H16.4064L10.4404 0H7.4574C7.4574 0 9.84949 5.87305 11.1862 8.94894H11.1587Z" transform="translate(0 0.119141)" fill="white"/>
</g>
</svg>
