<svg width="56" height="56" xmlns="http://www.w3.org/2000/svg">
 <defs>
  <filter color-interpolation-filters="sRGB" filterUnits="userSpaceOnUse" height="80" width="80" y="0" x="0" id="filter0_d">
   <feGaussianBlur stdDeviation="8"/>
  </filter>
 </defs>
 <g class="currentLayer">
  <title>Layer 1</title>
  <g id="svg_1" filter="url(#filter0_d)">
   <path id="svg_2" fill="white" d="m4,28c0,-13.2548 10.7452,-24 24,-24c13.2548,0 24,10.7452 24,24c0,13.2548 -10.7452,24 -24,24c-13.2548,0 -24,-10.7452 -24,-24z" clip-rule="evenodd" fill-rule="evenodd"/>
  </g>
  <path id="svg_3" fill="#A0B0B9" d="m17,28c0,-6.07202 4.91699,-11 10.989,-11c6.083,0 11.011,4.92798 11.011,11c0,6.072 -4.928,11 -11.011,11c-6.07201,0 -10.989,-4.928 -10.989,-11zm15.367,-4.40002l3.245,0c-1.056,-1.81507 -2.739,-3.22303 -4.763,-3.91602c0.66,1.22095 1.166,2.54102 1.518,3.91602zm-4.367,-4.35596c0.913,1.31994 1.628,2.78296 2.101,4.35596l-4.20201,0c0.47299,-1.573 1.18801,-3.03602 2.10101,-4.35596zm-8.79999,8.75598c0,0.759 0.10999,1.4961 0.28601,2.2001l3.71799,0c-0.08801,-0.7261 -0.15399,-1.4521 -0.15399,-2.2001c0,-0.7479 0.06598,-1.474 0.15399,-2.19995l-3.71799,0c-0.17602,0.70398 -0.28601,1.44105 -0.28601,2.19995zm1.18799,4.4l3.245,0c0.35199,1.375 0.858,2.695 1.518,3.916c-2.02399,-0.693 -3.707,-2.0899 -4.763,-3.916zm0,-8.80002l3.245,0c0.35199,-1.375 0.858,-2.69507 1.518,-3.91602c-2.02399,0.69299 -3.707,2.08997 -4.763,3.91602zm7.612,13.15602c-0.913,-1.32 -1.62802,-2.783 -2.10101,-4.356l4.20201,0c-0.473,1.573 -1.188,3.036 -2.101,4.356zm-2.75,-8.756c0,0.748 0.077,1.474 0.17599,2.2001l5.14801,0c0.099,-0.7261 0.176,-1.4521 0.176,-2.2001c0,-0.7479 -0.077,-1.48499 -0.176,-2.19995l-5.14801,0c-0.09899,0.71496 -0.17599,1.45205 -0.17599,2.19995zm5.599,8.316c0.66,-1.221 1.166,-2.541 1.518,-3.916l3.245,0c-1.056,1.815 -2.739,3.223 -4.763,3.916zm2.101,-8.316c0,0.748 -0.066,1.474 -0.154,2.2001l3.718,0c0.176,-0.704 0.286,-1.4411 0.286,-2.2001c0,-0.7589 -0.11,-1.49597 -0.286,-2.19995l-3.718,0c0.088,0.72595 0.154,1.45205 0.154,2.19995z" clip-rule="evenodd" fill-rule="evenodd"/>
 </g>
 <g>
  <title>Layer 2</title>
  <rect fill="none" y="0" x="0" height="100%" width="100%" id="backgroundrect"/>
 </g>
 <g>
  <title>background</title>
  <rect fill="none" id="canvas_background" height="402" width="582" y="-1" x="-1"/>
 </g>
</svg>